<svg xmlns="http://www.w3.org/2000/svg" xmlns:xlink="http://www.w3.org/1999/xlink" width="50" zoomAndPan="magnify" viewBox="0 0 375 374.999991" height="50" preserveAspectRatio="xMidYMid meet" version="1.0"><defs><clipPath id="26f4a73a5d"><path d="M 30 13.003906 L 369.480469 13.003906 L 369.480469 296 L 30 296 Z M 30 13.003906 " clip-rule="nonzero"/></clipPath><clipPath id="1089d0b4d9"><path d="M 5.730469 131 L 343 131 L 343 361.753906 L 5.730469 361.753906 Z M 5.730469 131 " clip-rule="nonzero"/></clipPath><clipPath id="4ef9c86ac0"><path d="M 131 83 L 177 83 L 177 187.5 L 131 187.5 Z M 131 83 " clip-rule="nonzero"/></clipPath></defs><path fill="#40b93c" d="M 190.207031 190.472656 C 188.320312 188.566406 186.480469 186.609375 184.6875 184.613281 C 186.480469 186.609375 188.320312 188.566406 190.207031 190.472656 " fill-opacity="1" fill-rule="nonzero"/><path fill="#40b93c" d="M 184.921875 191.273438 C 186.660156 188.828125 188.359375 186.351562 189.972656 183.8125 C 188.359375 186.351562 186.660156 188.828125 184.921875 191.273438 " fill-opacity="1" fill-rule="nonzero"/><path fill="#40b93c" d="M 193.4375 180.039062 C 189.71875 185.265625 185.738281 190.292969 181.457031 195.046875 C 185.738281 190.292969 189.71875 185.265625 193.4375 180.039062 " fill-opacity="1" fill-rule="nonzero"/><g clip-path="url(#26f4a73a5d)"><path fill="#38b6ff" d="M 200.09375 13.140625 C 106.703125 13.140625 30.996094 88.847656 30.996094 182.238281 C 30.996094 225.644531 47.371094 265.222656 74.257812 295.160156 L 119.300781 251.28125 L 146.722656 277.722656 L 258.367188 131.3125 L 342.851562 272.824219 C 359.507812 246.632812 369.195312 215.578125 369.195312 182.238281 C 369.195312 88.847656 293.484375 13.140625 200.09375 13.140625 " fill-opacity="1" fill-rule="nonzero"/></g><g clip-path="url(#1089d0b4d9)"><path fill="#231f20" d="M 258.367188 131.3125 L 146.722656 277.722656 L 119.300781 251.28125 L 74.257812 295.164062 L 5.699219 361.945312 L 95.796875 321.304688 L 98.070312 317.070312 L 124.199219 268.417969 L 169.25 326.691406 L 216.257812 235.609375 L 232.414062 283.597656 L 260.8125 166.570312 L 325.8125 295.304688 C 332.097656 288.320312 337.785156 280.792969 342.851562 272.824219 L 258.367188 131.3125 " fill-opacity="1" fill-rule="nonzero"/></g><path fill="#000000" d="M 116.625 172.710938 C 114.40625 172.710938 112.925781 171.972656 111.449219 170.492188 L 81.871094 140.914062 C 78.914062 137.957031 78.914062 133.519531 81.871094 130.5625 L 111.449219 100.984375 C 114.40625 98.027344 118.84375 98.027344 121.800781 100.984375 C 124.757812 103.945312 124.757812 108.378906 121.800781 111.339844 L 97.398438 135.738281 L 121.800781 160.140625 C 124.757812 163.097656 124.757812 167.535156 121.800781 170.492188 C 120.320312 171.972656 118.84375 172.710938 116.625 172.710938 Z M 116.625 172.710938 " fill-opacity="1" fill-rule="nonzero"/><path fill="#000000" d="M 190.566406 172.710938 C 188.347656 172.710938 186.871094 171.972656 185.390625 170.492188 C 182.433594 167.535156 182.433594 163.097656 185.390625 160.140625 L 209.792969 135.738281 L 185.390625 111.339844 C 182.433594 108.378906 182.433594 103.945312 185.390625 100.984375 C 188.347656 98.027344 192.785156 98.027344 195.742188 100.984375 L 225.320312 130.5625 C 228.277344 133.519531 228.277344 137.957031 225.320312 140.914062 L 195.742188 170.492188 C 194.265625 171.972656 192.785156 172.710938 190.566406 172.710938 Z M 190.566406 172.710938 " fill-opacity="1" fill-rule="nonzero"/><g clip-path="url(#4ef9c86ac0)"><path fill="#000000" d="M 138.808594 187.5 C 138.066406 187.5 137.328125 187.5 136.589844 186.761719 C 132.890625 185.28125 130.671875 181.585938 132.152344 177.148438 L 161.730469 88.414062 C 163.207031 84.71875 166.90625 82.5 171.34375 83.980469 C 175.039062 85.457031 177.257812 89.15625 175.777344 93.589844 L 146.203125 182.324219 C 144.722656 185.28125 141.765625 187.5 138.808594 187.5 Z M 138.808594 187.5 " fill-opacity="1" fill-rule="nonzero"/></g></svg>
